<svg width="18" height="18" viewBox="0 0 18 18" fill="none" xmlns="http://www.w3.org/2000/svg">
<path fill-rule="evenodd" clip-rule="evenodd" d="M4.86572 1.8C4.16674 1.8 3.6001 2.36664 3.6001 3.06563V14.7094C3.6001 15.4084 4.16674 15.975 4.86572 15.975H13.472C14.171 15.975 14.7376 15.4084 14.7376 14.7094V9.39375C14.7376 7.99578 13.6043 6.8625 12.2063 6.8625H10.9407C10.2417 6.8625 9.6751 6.29586 9.6751 5.59688V4.33125C9.6751 2.93328 8.54182 1.8 7.14385 1.8H4.86572ZM6.13135 10.9125C6.13135 10.6329 6.358 10.4063 6.6376 10.4063H11.7001C11.9797 10.4063 12.2063 10.6329 12.2063 10.9125C12.2063 11.1921 11.9797 11.4188 11.7001 11.4188H6.6376C6.358 11.4188 6.13135 11.1921 6.13135 10.9125ZM6.6376 12.4313C6.358 12.4313 6.13135 12.6579 6.13135 12.9375C6.13135 13.2171 6.358 13.4438 6.6376 13.4438H9.16885C9.44844 13.4438 9.6751 13.2171 9.6751 12.9375C9.6751 12.6579 9.44844 12.4313 9.16885 12.4313H6.6376Z" fill="#4C4C4C"/>
<path d="M9.8244 2.01324C10.3622 2.63463 10.6876 3.44494 10.6876 4.33125V5.59688C10.6876 5.73668 10.8009 5.85 10.9407 5.85H12.2063C13.0927 5.85 13.903 6.17538 14.5244 6.7132C13.925 4.41892 12.1187 2.61255 9.8244 2.01324Z" fill="#4C4C4C"/>
</svg>
